<svg width="46" height="51" viewBox="0 0 46 51" fill="none" xmlns="http://www.w3.org/2000/svg">
<path d="M17.8889 46.1429H28.1111C28.1111 48.8143 25.8111 51 23 51C20.1889 51 17.8889 48.8143 17.8889 46.1429ZM46 41.2857V43.7143H0V41.2857L5.11111 36.4286V21.8571C5.11111 14.3286 10.2222 7.77143 17.8889 5.58571V4.85714C17.8889 2.18571 20.1889 0 23 0C25.8111 0 28.1111 2.18571 28.1111 4.85714V5.58571C35.7778 7.77143 40.8889 14.3286 40.8889 21.8571V36.4286L46 41.2857ZM35.7778 21.8571C35.7778 15.0571 30.1556 9.71429 23 9.71429C15.8444 9.71429 10.2222 15.0571 10.2222 21.8571V38.8571H35.7778V21.8571Z" fill="white"/>
</svg>
