<svg width="46" height="52" viewBox="0 0 46 52" fill="none" xmlns="http://www.w3.org/2000/svg">
<path d="M17.8889 47.0476H28.1111C28.1111 49.7714 25.8111 52 23 52C20.1889 52 17.8889 49.7714 17.8889 47.0476ZM46 42.0952V44.5714H0V42.0952L5.11111 37.1429V22.2857C5.11111 14.6095 10.2222 7.92381 17.8889 5.69524V4.95238C17.8889 2.22857 20.1889 0 23 0C25.8111 0 28.1111 2.22857 28.1111 4.95238V5.69524C35.7778 7.92381 40.8889 14.6095 40.8889 22.2857V37.1429L46 42.0952ZM35.7778 22.2857C35.7778 15.3524 30.1556 9.90476 23 9.90476C15.8444 9.90476 10.2222 15.3524 10.2222 22.2857V39.619H35.7778V22.2857Z" fill="white"/>
</svg>
