<svg width="22" height="18" viewBox="0 0 22 18" fill="none" xmlns="http://www.w3.org/2000/svg">
<path fill-rule="evenodd" clip-rule="evenodd" d="M0.692529 0.934295C1.13451 0.555837 1.73365 0.343262 2.35832 0.343262C2.98299 0.343262 3.58212 0.555837 4.02411 0.934295L11.8816 7.67078C12.323 8.04971 12.571 8.56337 12.571 9.09892C12.571 9.63447 12.323 10.1481 11.8816 10.5271L4.02411 17.2635C3.57725 17.6205 2.98622 17.8149 2.37553 17.8056C1.76485 17.7964 1.18218 17.5843 0.750292 17.214C0.318403 16.8438 0.0710106 16.3442 0.0602357 15.8207C0.0494608 15.2971 0.276144 14.7904 0.692529 14.4073L6.8811 9.09892L0.689386 3.79057C0.24795 3.41164 0 2.89798 0 2.36243C0 1.82688 0.24795 1.31322 0.689386 0.934295H0.692529ZM10.1215 0.934295C10.5635 0.555837 11.1626 0.343262 11.7873 0.343262C12.412 0.343262 13.0111 0.555837 13.4531 0.934295L21.3106 7.67078C21.752 8.04971 22 8.56337 22 9.09892C22 9.63447 21.752 10.1481 21.3106 10.5271L13.4531 17.2635C13.0063 17.6205 12.4152 17.8149 11.8045 17.8056C11.1938 17.7964 10.6112 17.5843 10.1793 17.214C9.7474 16.8438 9.50001 16.3442 9.48924 15.8207C9.47846 15.2971 9.70515 14.7904 10.1215 14.4073L16.3101 9.09892L10.1184 3.79057C9.67695 3.41164 9.429 2.89798 9.429 2.36243C9.429 1.82688 9.67695 1.31322 10.1184 0.934295H10.1215Z" fill="#3A3EAC"/>
</svg>
