<svg width="30" height="26" viewBox="0 0 30 26" fill="none" xmlns="http://www.w3.org/2000/svg">
<path fill-rule="evenodd" clip-rule="evenodd" d="M0.944358 0.879982C1.54707 0.316502 2.36406 0 3.21589 0C4.06772 0 4.88472 0.316502 5.48742 0.879982L16.2022 10.9099C16.8042 11.474 17.1423 12.2388 17.1423 13.0362C17.1423 13.8336 16.8042 14.5984 16.2022 15.1625L5.48742 25.1924C4.87807 25.7239 4.07212 26.0133 3.23937 25.9995C2.40661 25.9858 1.61206 25.67 1.02313 25.1187C0.434185 24.5674 0.0968327 23.8236 0.0821396 23.0441C0.0674466 22.2646 0.37656 21.5102 0.944358 20.9398L9.38332 13.0362L0.940072 5.13265C0.338114 4.56847 0 3.8037 0 3.00632C0 2.20894 0.338114 1.44416 0.940072 0.879982H0.944358ZM13.8021 0.879982C14.4048 0.316502 15.2218 0 16.0736 0C16.9254 0 17.7424 0.316502 18.3452 0.879982L29.0599 10.9099C29.6619 11.474 30 12.2388 30 13.0362C30 13.8336 29.6619 14.5984 29.0599 15.1625L18.3452 25.1924C17.7358 25.7239 16.9299 26.0133 16.0971 25.9995C15.2643 25.9858 14.4698 25.67 13.8809 25.1187C13.2919 24.5674 12.9546 23.8236 12.9399 23.0441C12.9252 22.2646 13.2343 21.5102 13.8021 20.9398L22.241 13.0362L13.7978 5.13265C13.1958 4.56847 12.8577 3.8037 12.8577 3.00632C12.8577 2.20894 13.1958 1.44416 13.7978 0.879982H13.8021Z" fill="#3A3EAC"/>
</svg>
