<svg width="23" height="18" viewBox="0 0 23 18" fill="none" xmlns="http://www.w3.org/2000/svg">
<path fill-rule="evenodd" clip-rule="evenodd" d="M1.14159 0.934295C1.58317 0.555837 2.18175 0.343262 2.80584 0.343262C3.42994 0.343262 4.02852 0.555837 4.47009 0.934295L12.3203 7.67078C12.7613 8.04971 13.0091 8.56337 13.0091 9.09892C13.0091 9.63447 12.7613 10.1481 12.3203 10.5271L4.47009 17.2635C4.02365 17.6205 3.43317 17.8149 2.82304 17.8056C2.21292 17.7964 1.63079 17.5843 1.1993 17.214C0.767815 16.8438 0.520652 16.3442 0.509887 15.8207C0.499122 15.2971 0.725595 14.7904 1.14159 14.4073L7.32443 9.09892L1.13845 3.79057C0.697428 3.41164 0.449707 2.89798 0.449707 2.36243C0.449707 1.82688 0.697428 1.31322 1.13845 0.934295H1.14159ZM10.5619 0.934295C11.0034 0.555837 11.602 0.343262 12.2261 0.343262C12.8502 0.343262 13.4488 0.555837 13.8904 0.934295L21.7406 7.67078C22.1816 8.04971 22.4293 8.56337 22.4293 9.09892C22.4293 9.63447 22.1816 10.1481 21.7406 10.5271L13.8904 17.2635C13.4439 17.6205 12.8534 17.8149 12.2433 17.8056C11.6332 17.7964 11.0511 17.5843 10.6196 17.214C10.1881 16.8438 9.94092 16.3442 9.93016 15.8207C9.91939 15.2971 10.1459 14.7904 10.5619 14.4073L16.7447 9.09892L10.5587 3.79057C10.1177 3.41164 9.86998 2.89798 9.86998 2.36243C9.86998 1.82688 10.1177 1.31322 10.5587 0.934295H10.5619Z" fill="#3A3EAC"/>
</svg>
